<svg width="80" height="80" viewBox="0 0 80 80" fill="none" xmlns="http://www.w3.org/2000/svg">
  <path fill-rule="evenodd" clip-rule="evenodd"
    d="M8.30618 49.6023C8.45436 49.3055 8.6595 49.0408 8.90987 48.8233C9.16024 48.6058 9.45094 48.4399 9.76538 48.3349C10.0798 48.2299 10.4118 48.188 10.7425 48.2114C11.0731 48.2349 11.3959 48.3233 11.6924 48.4717L40.0082 62.6467L68.3239 48.4717C68.9227 48.172 69.6159 48.1226 70.2511 48.3346C70.8862 48.5465 71.4112 49.0024 71.7106 49.6019C72.01 50.2014 72.0592 50.8954 71.8475 51.5312C71.6358 52.167 71.1805 52.6926 70.5817 52.9924L41.1366 67.7313C40.7862 67.9067 40.3999 67.998 40.0082 67.998C39.6164 67.998 39.2301 67.9067 38.8797 67.7313L9.43461 52.9924C9.13807 52.844 8.87365 52.6385 8.65645 52.3877C8.43925 52.137 8.27352 51.8458 8.16873 51.5309C8.06394 51.216 8.02214 50.8836 8.04573 50.5525C8.06931 50.2214 8.15781 49.8991 8.30618 49.6023Z"
    fill="currentColor" />
  <path fill-rule="evenodd" clip-rule="evenodd"
    d="M8.30628 36.8614C8.60571 36.262 9.13067 35.8063 9.76569 35.5945C10.4007 35.3826 11.0938 35.4319 11.6925 35.7316L40.0083 49.9057L68.324 35.7316C68.9216 35.4411 69.6095 35.3981 70.2386 35.6121C70.8676 35.826 71.387 36.2796 71.6841 36.8744C71.9813 37.4693 72.0322 38.1574 71.8258 38.7896C71.6195 39.4218 71.1725 39.947 70.5818 40.2514L41.1367 54.9904C40.7863 55.1656 40.3999 55.2567 40.0083 55.2567C39.6166 55.2567 39.2303 55.1656 38.8798 54.9904L9.43471 40.2514C8.83607 39.9516 8.38087 39.4261 8.16926 38.7903C7.95764 38.1546 8.00693 37.4607 8.30628 36.8614Z"
    fill="currentColor" />
  <path fill-rule="evenodd" clip-rule="evenodd"
    d="M8.30628 23.8614C8.60571 23.262 9.13067 22.8063 9.76569 22.5945C10.4007 22.3826 11.0938 22.4319 11.6925 22.7316L40.0083 36.9057L68.324 22.7316C68.9216 22.4411 69.6095 22.3981 70.2386 22.6121C70.8676 22.826 71.387 23.2796 71.6841 23.8744C71.9813 24.4693 72.0322 25.1574 71.8258 25.7896C71.6195 26.4218 71.1725 26.947 70.5818 27.2514L41.1367 41.9904C40.7863 42.1656 40.3999 42.2567 40.0083 42.2567C39.6166 42.2567 39.2303 42.1656 38.8798 41.9904L9.43471 27.2514C8.83607 26.9516 8.38087 26.4261 8.16926 25.7903C7.95764 25.1546 8.00693 24.4607 8.30628 23.8614Z"
    fill="currentColor" />
  <path fill-rule="evenodd" clip-rule="evenodd"
    d="M71.6842 25.8594C71.3848 26.4587 70.8598 26.9144 70.2248 27.1262C69.5898 27.3381 68.8967 27.2888 68.298 26.9891L39.9822 12.815L11.6664 26.9891C11.0689 27.2796 10.3809 27.3226 9.75192 27.1086C9.1229 26.8947 8.60349 26.4411 8.30634 25.8463C8.00919 25.2514 7.95829 24.5633 8.16465 23.9311C8.37101 23.2989 8.818 22.7737 9.40868 22.4693L38.8538 7.73034C39.2042 7.55515 39.5905 7.46395 39.9822 7.46395C40.3739 7.46395 40.7602 7.55515 41.1107 7.73034L70.5558 22.4693C71.1544 22.7691 71.6096 23.2946 71.8212 23.9304C72.0328 24.5661 71.9836 25.26 71.6842 25.8594Z"
    fill="currentColor" />
  <path
    d="M39.7292 29.3554C40.3557 29.7171 41.2718 29.8553 42.1247 29.7167C42.9777 29.5782 43.6345 29.1845 43.8424 28.6873L46.609 22.0706C46.8092 21.5918 46.5633 21.0872 45.9599 20.7389C45.3565 20.3905 44.4826 20.2486 43.653 20.3642L32.1917 21.9613C31.3304 22.0813 30.6485 22.4605 30.4085 22.9529C30.1685 23.4453 30.4078 23.9742 31.0344 24.3359L39.7292 29.3554Z"
    stroke="currentColor" stroke-width="4" stroke-linecap="round" stroke-linejoin="round" />
</svg>