<svg width="1397" height="663" viewBox="0 0 1397 663" fill="none" xmlns="http://www.w3.org/2000/svg" className="m-auto">
  <g opacity="0.4">
    <line opacity="0.3" y1="-0.517969" x2="626.742" y2="-0.517969"
      transform="matrix(-4.37114e-08 -1 -1 4.37114e-08 899.75 662.742)" stroke="url(#paint0_linear_14111_77313)"
      stroke-width="1.03594" />
    <line opacity="0.6" y1="-0.517969" x2="626.742" y2="-0.517969"
      transform="matrix(-4.37114e-08 -1 -1 4.37114e-08 982.625 662.742)" stroke="url(#paint1_linear_14111_77313)"
      stroke-width="1.03594" />
    <line opacity="0.7" y1="-0.517969" x2="626.742" y2="-0.517969"
      transform="matrix(-4.37114e-08 -1 -1 4.37114e-08 1065.5 662.742)" stroke="url(#paint2_linear_14111_77313)"
      stroke-width="1.03594" />
    <path opacity="0.8" d="M1148.89 562.742L1148.89 36" stroke="url(#paint3_linear_14111_77313)"
      stroke-width="1.03594" />
    <line opacity="0.9" y1="-0.517969" x2="626.742" y2="-0.517969"
      transform="matrix(-4.37114e-08 -1 -1 4.37114e-08 1231.25 662.742)" stroke="url(#paint4_linear_14111_77313)"
      stroke-width="1.03594" />
    <line y1="-0.517969" x2="626.742" y2="-0.517969" transform="matrix(-4.37114e-08 -1 -1 4.37114e-08 1314.12 662.742)"
      stroke="url(#paint5_linear_14111_77313)" stroke-width="1.03594" />
    <line y1="-0.517969" x2="663" y2="-0.517969" transform="matrix(1 0 0 -1 734 496.992)"
      stroke="url(#paint6_linear_14111_77313)" stroke-width="1.03594" />
    <line y1="-0.517969" x2="663" y2="-0.517969" transform="matrix(1 0 0 -1 734 414.117)"
      stroke="url(#paint7_linear_14111_77313)" stroke-width="1.03594" />
    <line y1="-0.517969" x2="663" y2="-0.517969" transform="matrix(1 0 0 -1 734 331.242)"
      stroke="url(#paint8_linear_14111_77313)" stroke-width="1.03594" />
    <line y1="-0.517969" x2="663" y2="-0.517969" transform="matrix(1 0 0 -1 734 248.367)"
      stroke="url(#paint9_linear_14111_77313)" stroke-width="1.03594" />
    <path opacity="0.6" d="M786 166.01L1317 166.01" stroke="url(#paint10_linear_14111_77313)" stroke-width="1.03594" />
  </g>
  <g opacity="0.4">
    <line opacity="0.3" y1="-0.517969" x2="626.742" y2="-0.517969"
      transform="matrix(4.37114e-08 1 1 -4.37114e-08 497.25 0)" stroke="url(#paint11_linear_14111_77313)"
      stroke-width="1.03594" />
    <line opacity="0.6" y1="-0.517969" x2="626.742" y2="-0.517969"
      transform="matrix(4.37114e-08 1 1 -4.37114e-08 414.375 0)" stroke="url(#paint12_linear_14111_77313)"
      stroke-width="1.03594" />
    <line opacity="0.7" y1="-0.517969" x2="626.742" y2="-0.517969"
      transform="matrix(4.37114e-08 1 1 -4.37114e-08 331.5 0)" stroke="url(#paint13_linear_14111_77313)"
      stroke-width="1.03594" />
    <line opacity="0.8" y1="-0.517969" x2="626.742" y2="-0.517969"
      transform="matrix(4.37114e-08 1 1 -4.37114e-08 248.625 0)" stroke="url(#paint14_linear_14111_77313)"
      stroke-width="1.03594" />
    <line opacity="0.9" y1="-0.517969" x2="626.742" y2="-0.517969"
      transform="matrix(4.37114e-08 1 1 -4.37114e-08 165.75 0)" stroke="url(#paint15_linear_14111_77313)"
      stroke-width="1.03594" />
    <line y1="-0.517969" x2="626.742" y2="-0.517969" transform="matrix(4.37114e-08 1 1 -4.37114e-08 82.875 0)"
      stroke="url(#paint16_linear_14111_77313)" stroke-width="1.03594" />
    <line y1="-0.517969" x2="663" y2="-0.517969" transform="matrix(-1 0 0 1 663 165.75)"
      stroke="url(#paint17_linear_14111_77313)" stroke-width="1.03594" />
    <line y1="-0.517969" x2="663" y2="-0.517969" transform="matrix(-1 0 0 1 663 248.625)"
      stroke="url(#paint18_linear_14111_77313)" stroke-width="1.03594" />
    <path d="M557 330.982L0 330.982" stroke="url(#paint19_linear_14111_77313)" stroke-width="1.03594" />
    <line y1="-0.517969" x2="663" y2="-0.517969" transform="matrix(-1 0 0 1 663 414.375)"
      stroke="url(#paint20_linear_14111_77313)" stroke-width="1.03594" />
    <line opacity="0.4" y1="-0.517969" x2="663" y2="-0.517969" transform="matrix(-1 0 0 1 663 497.25)"
      stroke="url(#paint21_linear_14111_77313)" stroke-width="1.03594" />
  </g>
  <rect x="165" y="330.742" width="82" height="82" transform="rotate(-180 165 330.742)"
    fill="url(#paint22_linear_14111_77313)" fill-opacity="0.12" />
  <rect x="166" y="414.5" width="82" height="82" fill="url(#paint23_linear_14111_77313)" fill-opacity="0.08" />
  <rect x="1232.3" y="332.3" width="81.8" height="81.8" fill="url(#paint24_linear_14111_77313)" fill-opacity="0.11" />
  <rect x="1231.5" y="248.742" width="82" height="82" transform="rotate(-180 1231.5 248.742)"
    fill="url(#paint25_linear_14111_77313)" fill-opacity="0.11" />
  <defs>
    <linearGradient id="paint0_linear_14111_77313" x1="626.742" y1="-2.64454e-05" x2="0" y2="1.93481e-06"
      gradientUnits="userSpaceOnUse">
      <stop stop-color="#D7D7D7" stop-opacity="0.3" />
      <stop offset="0.0001" stop-color="#E4E4E4" stop-opacity="0" />
      <stop offset="0.733884" stop-color="#DADADA" />
      <stop offset="1" stop-color="#E6E6E6" stop-opacity="0" />
    </linearGradient>
    <linearGradient id="paint1_linear_14111_77313" x1="626.742" y1="-2.64454e-05" x2="0" y2="1.93481e-06"
      gradientUnits="userSpaceOnUse">
      <stop stop-color="#ECECEC" stop-opacity="0.3" />
      <stop offset="0.0001" stop-color="#DCDCDC" stop-opacity="0" />
      <stop offset="0.555915" stop-color="#BFBFBF" />
      <stop offset="1" stop-color="#DCDCDC" stop-opacity="0" />
    </linearGradient>
    <linearGradient id="paint2_linear_14111_77313" x1="626.742" y1="-2.64454e-05" x2="0" y2="1.93481e-06"
      gradientUnits="userSpaceOnUse">
      <stop stop-color="#E1E1E1" stop-opacity="0.3" />
      <stop offset="0.0001" stop-color="#EAEAEA" stop-opacity="0" />
      <stop offset="0.441553" stop-color="#C6C6C6" />
      <stop offset="0.797361" stop-color="#E0E0E0" stop-opacity="0.3" />
    </linearGradient>
    <linearGradient id="paint3_linear_14111_77313" x1="1148.37" y1="36" x2="1148.37" y2="552.742"
      gradientUnits="userSpaceOnUse">
      <stop stop-color="#171D1E" stop-opacity="0.3" />
      <stop offset="0.0001" stop-color="#DCDCDC" stop-opacity="0" />
      <stop offset="0.283976" stop-color="#D7D7D7" stop-opacity="0.41" />
      <stop offset="0.696173" stop-color="#D1D1D1" />
      <stop offset="1" stop-color="#E2E2E2" stop-opacity="0" />
    </linearGradient>
    <linearGradient id="paint4_linear_14111_77313" x1="626.742" y1="-2.64454e-05" x2="0" y2="1.93481e-06"
      gradientUnits="userSpaceOnUse">
      <stop stop-color="#171D1E" stop-opacity="0.3" />
      <stop offset="0.0001" stop-color="#DCDCDC" stop-opacity="0" />
      <stop offset="0.226157" stop-color="#CFCFCF" />
      <stop offset="1" stop-color="#DDDDDD" stop-opacity="0" />
    </linearGradient>
    <linearGradient id="paint5_linear_14111_77313" x1="626.742" y1="-2.64454e-05" x2="0" y2="1.93481e-06"
      gradientUnits="userSpaceOnUse">
      <stop stop-color="#171D1E" stop-opacity="0.3" />
      <stop offset="0.0001" stop-color="#E4E4E4" stop-opacity="0" />
      <stop offset="0.500589" stop-color="#A6A6A6" />
      <stop offset="0.827677" stop-color="#E0E0E0" stop-opacity="0" />
    </linearGradient>
    <linearGradient id="paint6_linear_14111_77313" x1="0" y1="0" x2="663" y2="8.21492e-09"
      gradientUnits="userSpaceOnUse">
      <stop stop-color="#E8E8E8" stop-opacity="0.3" />
      <stop offset="0.834016" stop-color="#C9C9C9" />
      <stop offset="1" stop-color="#E7E7E7" stop-opacity="0.3" />
    </linearGradient>
    <linearGradient id="paint7_linear_14111_77313" x1="0" y1="0" x2="663" y2="8.21492e-09"
      gradientUnits="userSpaceOnUse">
      <stop stop-color="#E2E2E2" stop-opacity="0.3" />
      <stop offset="0.614253" stop-color="#CACACA" />
      <stop offset="1" stop-color="#E6E6E6" stop-opacity="0.3" />
    </linearGradient>
    <linearGradient id="paint8_linear_14111_77313" x1="0" y1="0" x2="663" y2="8.21492e-09"
      gradientUnits="userSpaceOnUse">
      <stop stop-color="white" stop-opacity="0.3" />
      <stop offset="0.581967" stop-color="#C5C5C5" />
      <stop offset="1" stop-color="#EDEDED" stop-opacity="0.3" />
    </linearGradient>
    <linearGradient id="paint9_linear_14111_77313" x1="0" y1="0" x2="663" y2="8.21492e-09"
      gradientUnits="userSpaceOnUse">
      <stop offset="0.354449" stop-color="white" stop-opacity="0.3" />
      <stop offset="0.698341" stop-color="#CECECE" />
      <stop offset="1" stop-color="white" stop-opacity="0.3" />
    </linearGradient>
    <linearGradient id="paint10_linear_14111_77313" x1="734.004" y1="-2.40179e+13" x2="1397" y2="-2.40179e+13"
      gradientUnits="userSpaceOnUse">
      <stop offset="0.245852" stop-color="#E3E3E3" stop-opacity="0.3" />
      <stop offset="0.74359" stop-color="#D0D0D0" />
      <stop offset="1" stop-color="#E2E2E2" stop-opacity="0.3" />
    </linearGradient>
    <linearGradient id="paint11_linear_14111_77313" x1="626.742" y1="-2.64454e-05" x2="0" y2="1.93481e-06"
      gradientUnits="userSpaceOnUse">
      <stop stop-color="#171D1E" stop-opacity="0.3" />
      <stop offset="0.0001" stop-color="white" stop-opacity="0" />
      <stop offset="0.733884" stop-color="#BDBDBD" />
      <stop offset="1" stop-color="white" stop-opacity="0" />
    </linearGradient>
    <linearGradient id="paint12_linear_14111_77313" x1="626.742" y1="-2.64454e-05" x2="0" y2="1.93481e-06"
      gradientUnits="userSpaceOnUse">
      <stop stop-color="#171D1E" stop-opacity="0.3" />
      <stop offset="0.0001" stop-color="white" stop-opacity="0" />
      <stop offset="0.555915" stop-color="#ADADAD" />
      <stop offset="1" stop-color="white" stop-opacity="0" />
    </linearGradient>
    <linearGradient id="paint13_linear_14111_77313" x1="626.742" y1="-2.64454e-05" x2="0" y2="1.93481e-06"
      gradientUnits="userSpaceOnUse">
      <stop stop-color="#171D1E" stop-opacity="0.3" />
      <stop offset="0.0001" stop-color="white" stop-opacity="0" />
      <stop offset="0.327088" stop-color="#CCCCCC" />
      <stop offset="1" stop-color="white" stop-opacity="0.3" />
    </linearGradient>
    <linearGradient id="paint14_linear_14111_77313" x1="626.742" y1="-2.64454e-05" x2="0" y2="1.93481e-06"
      gradientUnits="userSpaceOnUse">
      <stop offset="0.137221" stop-color="white" stop-opacity="0.3" />
      <stop offset="0.741932" stop-color="#D0D0D0" />
      <stop offset="1" stop-color="white" stop-opacity="0" />
    </linearGradient>
    <linearGradient id="paint15_linear_14111_77313" x1="626.742" y1="-2.64454e-05" x2="0" y2="1.93481e-06"
      gradientUnits="userSpaceOnUse">
      <stop offset="0.137221" stop-color="white" stop-opacity="0.3" />
      <stop offset="0.586777" stop-color="#CCCCCC" />
      <stop offset="1" stop-color="white" stop-opacity="0" />
    </linearGradient>
    <linearGradient id="paint16_linear_14111_77313" x1="626.742" y1="-2.64454e-05" x2="0" y2="1.93481e-06"
      gradientUnits="userSpaceOnUse">
      <stop stop-color="white" stop-opacity="0.3" />
      <stop offset="0.0001" stop-color="white" stop-opacity="0" />
      <stop offset="0.636364" stop-color="#AEAEAE" />
      <stop offset="1" stop-color="white" stop-opacity="0" />
    </linearGradient>
    <linearGradient id="paint17_linear_14111_77313" x1="0" y1="0" x2="663" y2="8.21492e-09"
      gradientUnits="userSpaceOnUse">
      <stop stop-color="white" stop-opacity="0.3" />
      <stop offset="0.834016" stop-color="#ABABAB" stop-opacity="0.7" />
      <stop offset="1" stop-color="white" stop-opacity="0.3" />
    </linearGradient>
    <linearGradient id="paint18_linear_14111_77313" x1="0" y1="0" x2="663" y2="8.21492e-09"
      gradientUnits="userSpaceOnUse">
      <stop stop-color="white" stop-opacity="0.3" />
      <stop offset="0.757164" stop-color="#CACACA" />
      <stop offset="1" stop-color="white" stop-opacity="0.3" />
    </linearGradient>
    <linearGradient id="paint19_linear_14111_77313" x1="557.002" y1="-1.26607e+13" x2="0.00111565" y2="-1.26607e+13"
      gradientUnits="userSpaceOnUse">
      <stop stop-color="white" stop-opacity="0.3" />
      <stop offset="0.301659" stop-color="#CDCDCD" />
      <stop offset="1" stop-color="white" stop-opacity="0.3" />
    </linearGradient>
    <linearGradient id="paint20_linear_14111_77313" x1="0" y1="0" x2="663" y2="8.21492e-09"
      gradientUnits="userSpaceOnUse">
      <stop stop-color="white" stop-opacity="0.3" />
      <stop offset="0.491803" stop-color="#C6C6C6" />
      <stop offset="1" stop-color="white" stop-opacity="0.3" />
    </linearGradient>
    <linearGradient id="paint21_linear_14111_77313" x1="0" y1="0" x2="663" y2="8.21492e-09"
      gradientUnits="userSpaceOnUse">
      <stop stop-color="white" stop-opacity="0.3" />
      <stop offset="0.641393" stop-color="#B8B8B8" />
      <stop offset="1" stop-color="white" stop-opacity="0.3" />
    </linearGradient>
    <linearGradient id="paint22_linear_14111_77313" x1="165" y1="330.742" x2="247" y2="412.742"
      gradientUnits="userSpaceOnUse">
      <stop stop-color="white" />
      <stop offset="1" stop-color="#4F4F4F" stop-opacity="0.2" />
    </linearGradient>
    <linearGradient id="paint23_linear_14111_77313" x1="166" y1="414.5" x2="248" y2="496.5"
      gradientUnits="userSpaceOnUse">
      <stop stop-color="white" />
      <stop offset="1" stop-color="#4F4F4F" stop-opacity="0.3" />
    </linearGradient>
    <linearGradient id="paint24_linear_14111_77313" x1="1232.3" y1="332.3" x2="1314.1" y2="414.1"
      gradientUnits="userSpaceOnUse">
      <stop stop-color="white" />
      <stop offset="1" stop-color="#4F4F4F" stop-opacity="0.3" />
    </linearGradient>
    <linearGradient id="paint25_linear_14111_77313" x1="1231.5" y1="248.742" x2="1313.5" y2="330.742"
      gradientUnits="userSpaceOnUse">
      <stop stop-color="#4F4F4F" stop-opacity="0.3" />
      <stop offset="1" stop-color="white" />
    </linearGradient>
  </defs>
</svg>